<svg xmlns="http://www.w3.org/2000/svg" viewBox="0 0 24 24" fill="currentColor">
    <path
        d="M19.365 9.89c.50 0 .91.39.91.89 0 .5-.41.9-.91.9H17.39v1.26h1.975c.5 0 .91.38.91.88s-.41.89-.91.89H16.47a.91.91 0 0 1-.91-.9V7.67c0-.5.41-.9.91-.9h2.895c.5 0 .91.4.91.9s-.41.89-.91.89H17.39v1.33h1.975zm-6.49 3.9c0 .5-.4.91-.9.91-.26 0-.5-.1-.67-.28l-2.8-3.13v2.5a.91.91 0 1 1-1.82 0V7.69a.91.91 0 0 1 .91-.91c.26 0 .5.1.67.28l2.8 3.13V7.68a.91.91 0 1 1 1.82 0V13.8h-.01zm-8.4-1.11c-.5 0-.91-.4-.91-.9V7.7a.91.91 0 1 1 1.82 0v4.1c0 .5-.41.9-.91.9zM24 10.63c0-4.85-5.38-8.8-12-8.8-6.6 0-12 3.95-12 8.8 0 4.35 4.33 7.99 10.19 8.69.4.08.94.24 1.08.55.12.28.08.72.04 1.01 0 0-.13.81-.16.98-.05.3-.23 1.16.98.63 1.22-.53 6.59-3.63 9-6.22C23.25 14.57 24 12.7 24 10.63z" />
</svg>